<svg xmlns="http://www.w3.org/2000/svg" viewBox="0 0 341.75 402.83">
  <g id="Layer_2" data-name="Layer 2">
    <g id="Layer_1-2" data-name="Layer 1">
      <path d="M325.6,302.13a23.27,23.27,0,0,1-23.27,23.28H38.53a23.27,23.27,0,0,1-23.27-23.28V38.33A23.27,23.27,0,0,1,38.53,15.06h263.8A23.28,23.28,0,0,1,325.6,38.33Z" style="fill: #f37021"/>
      <path d="M263.64,43.49V119.3h-58.4V321.35H106.89v-202H48.49V43.49Z" style="fill: #fff"/>
      <path d="M153,197.55h44.68v20.58H179.83v19.52h16.75v19.61H179.83v22.67h19.62V300.5H153Z" style="fill: #a7a9ac"/>
      <path d="M263.91,228.75H239v-7.63q0-5.34-1-6.79a3.54,3.54,0,0,0-3.21-1.46,4,4,0,0,0-3.67,2,11.21,11.21,0,0,0-1.26,5.95c0,3.44.48,6,1.43,7.74s3.43,3.83,7.58,6.3q17.87,10.67,22.51,17.47t4.65,21.93q0,11-2.58,16.22t-9.95,8.74a39.42,39.42,0,0,1-17.18,3.53q-10.75,0-18.35-4.07t-10-10.37q-2.34-6.28-2.35-17.86v-6.74h24.88V276.2c0,3.87.35,6.34,1,7.44a4,4,0,0,0,3.72,1.66,4.35,4.35,0,0,0,4-2.1,12,12,0,0,0,1.3-6.24q0-9.1-2.48-11.89t-12.54-9.34q-10-6.61-13.24-9.61a22.37,22.37,0,0,1-5.39-8.26,36.36,36.36,0,0,1-2.14-13.48q0-11.83,3-17.3a20.42,20.42,0,0,1,9.78-8.55,39.12,39.12,0,0,1,16.3-3.08q10.44,0,17.81,3.37t9.73,8.48q2.39,5.12,2.4,17.38Z" style="fill: #fff"/>
      <path d="M322.26,197.55v20.58H312.5V300.5H285.71V218.13H269.93V197.55Z" style="fill: #fff"/>
      <path d="M308,319.33H33.9A12.37,12.37,0,0,1,21.52,307l0-273.17A12.39,12.39,0,0,1,33.87,21.41H308a12.38,12.38,0,0,1,12.38,12.38l0,273.17A12.37,12.37,0,0,1,308,319.33M311.54,0H30.22A30.21,30.21,0,0,0,0,30.2V372.62a30.22,30.22,0,0,0,30.22,30.21H311.54a30.39,30.39,0,0,0,30.21-30.21V30.2A30.38,30.38,0,0,0,311.54,0Z"/>
      <g>
        <path d="M72.41,353.74h-6.7V349h6.7v-2.7H65.76v-4.81h6.65v-3.94h8.16V361.8H72.41v-8.06Zm-25.47,1.95h6.38V343.2H46.94ZM50,369.48c-2.14.77-3.21,1.72-3.21,2.88s1.07,2,3.21,2.78a29.2,29.2,0,0,0,9.85,1.33,28.55,28.55,0,0,0,9.68-1.33c2.17-.76,3.27-1.69,3.27-2.78s-1.1-2.11-3.27-2.88a29.76,29.76,0,0,0-9.68-1.28A30.44,30.44,0,0,0,50,369.48m25.72-3.32q5.27,2.52,5.26,6.2t-5.37,6.1q-5.86,2.79-15.76,2.79-10.18,0-16.1-2.79-5.31-2.47-5.31-6.1t5.31-6.2q5.91-2.79,16.1-2.79,10,0,15.87,2.79m-10.9-27.77v4.81H61.43v12.49H69v4.76H34.24v-4.76h4.53V343.2H34.29v-4.81Z" style="fill: #fff"/>
        <path d="M193,337.51v17.26h5.58v4.87H193v20.44h-8.16V337.51Zm-18.33.88v13.17a22,22,0,0,1-6.18,15.89q-5.75,5.88-17.09,9.52l-3.26-3.63q8.3-2.83,12.89-7.21a17,17,0,0,0,5.53-12.71V343.2H149.47v-4.81Z" style="fill: #fff"/>
        <path d="M292,357.26v-2.75c-.95.12-2,.23-3.16.32s-2.2.08-3.49.08-2.51,0-3.55-.08-2.25-.2-3.21-.32v2.75ZM275.9,370.54c-2.06.65-3.09,1.44-3.09,2.39s1,1.74,3.09,2.39a32.31,32.31,0,0,0,9.46,1.11,31,31,0,0,0,9.24-1.11c2.1-.65,3.15-1.44,3.15-2.39s-1.05-1.74-3.15-2.39a32.22,32.22,0,0,0-9.24-1.06,33.62,33.62,0,0,0-9.46,1.06m-.27-27.17c-2.15.71-3.22,1.62-3.22,2.74s1.07,2,3.22,2.7a31.76,31.76,0,0,0,9.62,1.15,32.28,32.28,0,0,0,9.68-1.15q3.21-1.06,3.21-2.7c0-1.12-1.07-2-3.21-2.74a33.49,33.49,0,0,0-9.68-1.11,33,33,0,0,0-9.62,1.11m25.17,23.81c3.46,1.56,5.2,3.49,5.2,5.79s-1.74,4.15-5.2,5.71q-5.74,2.61-15.49,2.62t-15.55-2.62q-5.14-2.34-5.14-5.71t5.14-5.79q5.76-2.61,15.55-2.61t15.49,2.61m-35.22-17.49a5.13,5.13,0,0,1-1.6-3.58q0-3.69,5.31-6.16,5.85-2.65,16.08-2.65T301.46,340c3.57,1.65,5.37,3.7,5.37,6.16a5.06,5.06,0,0,1-1.67,3.58,15.08,15.08,0,0,1-5,3v4.56h9.13v4.81H261.43v-4.81h9V352.7a13.89,13.89,0,0,1-4.87-3Z" style="fill: #fff"/>
      </g>
    </g>
  </g>
</svg>
